<mxfile host="app.diagrams.net" modified="2024-01-07T19:43:59.030Z" agent="Mozilla/5.0 (Windows NT 10.0; Win64; x64) AppleWebKit/537.36 (KHTML, like Gecko) Chrome/120.0.0.0 Safari/537.36" etag="ufmVKRtheOJ5y0Whel3x" version="22.1.17" type="device">
  <diagram name="Page-1" id="5f0bae14-7c28-e335-631c-24af17079c00">
    <mxGraphModel dx="1434" dy="784" grid="1" gridSize="10" guides="1" tooltips="1" connect="1" arrows="1" fold="1" page="1" pageScale="1" pageWidth="1169" pageHeight="827" background="none" math="0" shadow="0">
      <root>
        <mxCell id="0" />
        <mxCell id="1" parent="0" />
        <mxCell id="SHrYjwZxxFRvRsRkmXIJ-18" value="" style="shape=folder;fontStyle=1;spacingTop=10;tabWidth=40;tabHeight=14;tabPosition=left;html=1;whiteSpace=wrap;align=center;movable=1;resizable=1;rotatable=1;deletable=1;editable=1;locked=0;connectable=1;" parent="1" vertex="1">
          <mxGeometry x="162.25" y="225" width="337.75" height="100" as="geometry" />
        </mxCell>
        <mxCell id="SHrYjwZxxFRvRsRkmXIJ-20" value="&lt;p style=&quot;margin: 4px 0px 0px;&quot;&gt;&lt;b style=&quot;background-color: initial;&quot;&gt;PlanejamentoMensalController&lt;/b&gt;&lt;br&gt;&lt;/p&gt;" style="verticalAlign=top;align=center;overflow=fill;fontSize=12;fontFamily=Helvetica;html=1;whiteSpace=wrap;movable=1;resizable=1;rotatable=1;deletable=1;editable=1;locked=0;connectable=1;" parent="1" vertex="1">
          <mxGeometry x="196" y="265" width="194" height="45" as="geometry" />
        </mxCell>
        <mxCell id="SHrYjwZxxFRvRsRkmXIJ-21" value="br.com.locacar.api.planejamento_locatech.controller" style="text;html=1;strokeColor=none;fillColor=none;align=left;verticalAlign=middle;whiteSpace=wrap;rounded=0;" parent="1" vertex="1">
          <mxGeometry x="164" y="235" width="338.75" height="30" as="geometry" />
        </mxCell>
        <mxCell id="SHrYjwZxxFRvRsRkmXIJ-28" value="" style="shape=folder;fontStyle=1;spacingTop=10;tabWidth=40;tabHeight=14;tabPosition=left;html=1;whiteSpace=wrap;align=center;movable=1;resizable=1;rotatable=1;deletable=1;editable=1;locked=0;connectable=1;" parent="1" vertex="1">
          <mxGeometry x="160.75" y="93" width="339.25" height="100" as="geometry" />
        </mxCell>
        <mxCell id="SHrYjwZxxFRvRsRkmXIJ-29" value="&lt;p style=&quot;margin: 4px 0px 0px;&quot;&gt;&lt;b style=&quot;background-color: initial;&quot;&gt;ApiApplication&lt;/b&gt;&lt;br&gt;&lt;/p&gt;" style="verticalAlign=top;align=center;overflow=fill;fontSize=12;fontFamily=Helvetica;html=1;whiteSpace=wrap;movable=1;resizable=1;rotatable=1;deletable=1;editable=1;locked=0;connectable=1;" parent="1" vertex="1">
          <mxGeometry x="198.25" y="133" width="171.75" height="45" as="geometry" />
        </mxCell>
        <mxCell id="SHrYjwZxxFRvRsRkmXIJ-30" value="br.com.locacar.api.planejamento_locatech" style="text;html=1;strokeColor=none;fillColor=none;align=left;verticalAlign=middle;whiteSpace=wrap;rounded=0;" parent="1" vertex="1">
          <mxGeometry x="162.75" y="103" width="267.25" height="30" as="geometry" />
        </mxCell>
        <mxCell id="SHrYjwZxxFRvRsRkmXIJ-31" value="" style="shape=folder;fontStyle=1;spacingTop=10;tabWidth=40;tabHeight=14;tabPosition=left;html=1;whiteSpace=wrap;align=center;movable=1;resizable=1;rotatable=1;deletable=1;editable=1;locked=0;connectable=1;" parent="1" vertex="1">
          <mxGeometry x="162" y="350" width="338" height="100" as="geometry" />
        </mxCell>
        <mxCell id="SHrYjwZxxFRvRsRkmXIJ-32" value="&lt;p style=&quot;margin: 4px 0px 0px;&quot;&gt;&lt;b style=&quot;background-color: initial;&quot;&gt;PlanejamentoMensalService&lt;/b&gt;&lt;br&gt;&lt;/p&gt;" style="verticalAlign=top;align=center;overflow=fill;fontSize=12;fontFamily=Helvetica;html=1;whiteSpace=wrap;movable=1;resizable=1;rotatable=1;deletable=1;editable=1;locked=0;connectable=1;" parent="1" vertex="1">
          <mxGeometry x="194.5" y="390" width="195.5" height="45" as="geometry" />
        </mxCell>
        <mxCell id="SHrYjwZxxFRvRsRkmXIJ-33" value="br.com.locacar.api.planejamento_locatech.service" style="text;html=1;strokeColor=none;fillColor=none;align=left;verticalAlign=middle;whiteSpace=wrap;rounded=0;" parent="1" vertex="1">
          <mxGeometry x="166" y="360" width="311" height="30" as="geometry" />
        </mxCell>
        <mxCell id="SHrYjwZxxFRvRsRkmXIJ-34" value="" style="shape=folder;fontStyle=1;spacingTop=10;tabWidth=40;tabHeight=14;tabPosition=left;html=1;whiteSpace=wrap;align=center;movable=1;resizable=1;rotatable=1;deletable=1;editable=1;locked=0;connectable=1;" parent="1" vertex="1">
          <mxGeometry x="162" y="470" width="338" height="100" as="geometry" />
        </mxCell>
        <mxCell id="SHrYjwZxxFRvRsRkmXIJ-35" value="&lt;p style=&quot;margin: 4px 0px 0px;&quot;&gt;&lt;b style=&quot;background-color: initial;&quot;&gt;PlanejamentoMensalRepository&lt;/b&gt;&lt;br&gt;&lt;/p&gt;" style="verticalAlign=top;align=center;overflow=fill;fontSize=12;fontFamily=Helvetica;html=1;whiteSpace=wrap;movable=1;resizable=1;rotatable=1;deletable=1;editable=1;locked=0;connectable=1;" parent="1" vertex="1">
          <mxGeometry x="194.5" y="510" width="195.5" height="45" as="geometry" />
        </mxCell>
        <mxCell id="SHrYjwZxxFRvRsRkmXIJ-36" value="br.com.locacar.api.planejamento_locatech.repository" style="text;html=1;strokeColor=none;fillColor=none;align=left;verticalAlign=middle;whiteSpace=wrap;rounded=0;" parent="1" vertex="1">
          <mxGeometry x="165.75" y="480" width="329.25" height="30" as="geometry" />
        </mxCell>
        <mxCell id="SHrYjwZxxFRvRsRkmXIJ-37" value="" style="shape=folder;fontStyle=1;spacingTop=10;tabWidth=40;tabHeight=14;tabPosition=left;html=1;whiteSpace=wrap;align=center;movable=1;resizable=1;rotatable=1;deletable=1;editable=1;locked=0;connectable=1;" parent="1" vertex="1">
          <mxGeometry x="166" y="590" width="354" height="100" as="geometry" />
        </mxCell>
        <mxCell id="SHrYjwZxxFRvRsRkmXIJ-38" value="&lt;p style=&quot;margin: 4px 0px 0px;&quot;&gt;&lt;b style=&quot;background-color: initial;&quot;&gt;PlanejamentoMensalDTO&lt;/b&gt;&lt;br&gt;&lt;/p&gt;" style="verticalAlign=top;align=center;overflow=fill;fontSize=12;fontFamily=Helvetica;html=1;whiteSpace=wrap;movable=1;resizable=1;rotatable=1;deletable=1;editable=1;locked=0;connectable=1;" parent="1" vertex="1">
          <mxGeometry x="188.25" y="629" width="171.75" height="48" as="geometry" />
        </mxCell>
        <mxCell id="SHrYjwZxxFRvRsRkmXIJ-39" value="br.com.locacar.api.planejamento_locatech.dto" style="text;html=1;strokeColor=none;fillColor=none;align=left;verticalAlign=middle;whiteSpace=wrap;rounded=0;" parent="1" vertex="1">
          <mxGeometry x="166" y="599" width="286" height="30" as="geometry" />
        </mxCell>
        <mxCell id="SHrYjwZxxFRvRsRkmXIJ-40" value="" style="shape=folder;fontStyle=1;spacingTop=10;tabWidth=40;tabHeight=14;tabPosition=left;html=1;whiteSpace=wrap;align=center;movable=1;resizable=1;rotatable=1;deletable=1;editable=1;locked=0;connectable=1;" parent="1" vertex="1">
          <mxGeometry x="163.25" y="840" width="256.75" height="100" as="geometry" />
        </mxCell>
        <mxCell id="SHrYjwZxxFRvRsRkmXIJ-42" value="&lt;b&gt;spring&lt;br&gt;&lt;ul&gt;&lt;li style=&quot;text-align: left;&quot;&gt;Data persistence infra&lt;/li&gt;&lt;li style=&quot;text-align: left;&quot;&gt;ORMs e/ou acesso API Dados&lt;/li&gt;&lt;/ul&gt;&lt;/b&gt;" style="text;html=1;strokeColor=none;fillColor=none;align=center;verticalAlign=middle;whiteSpace=wrap;rounded=0;" parent="1" vertex="1">
          <mxGeometry x="153.25" y="880" width="220" height="30" as="geometry" />
        </mxCell>
        <mxCell id="SHrYjwZxxFRvRsRkmXIJ-45" value="" style="shape=folder;fontStyle=1;spacingTop=10;tabWidth=40;tabHeight=14;tabPosition=left;html=1;whiteSpace=wrap;align=center;movable=1;resizable=1;rotatable=1;deletable=1;editable=1;locked=0;connectable=1;" parent="1" vertex="1">
          <mxGeometry x="162" y="714" width="488" height="96" as="geometry" />
        </mxCell>
        <mxCell id="SHrYjwZxxFRvRsRkmXIJ-46" value="&lt;p style=&quot;margin: 4px 0px 0px;&quot;&gt;&lt;b style=&quot;background-color: initial;&quot;&gt;PlanejamentoMensal&lt;/b&gt;&lt;br&gt;&lt;/p&gt;" style="verticalAlign=top;align=center;overflow=fill;fontSize=12;fontFamily=Helvetica;html=1;whiteSpace=wrap;movable=1;resizable=1;rotatable=1;deletable=1;editable=1;locked=0;connectable=1;" parent="1" vertex="1">
          <mxGeometry x="189.5" y="748.5" width="140" height="45" as="geometry" />
        </mxCell>
        <mxCell id="SHrYjwZxxFRvRsRkmXIJ-47" value="br.com.locacar.api.planejamento_locatech.entities" style="text;html=1;strokeColor=none;fillColor=none;align=left;verticalAlign=middle;whiteSpace=wrap;rounded=0;" parent="1" vertex="1">
          <mxGeometry x="166" y="722" width="314" height="30" as="geometry" />
        </mxCell>
        <mxCell id="mgbPzSR5ZNTpy0_arQ9--2" value="" style="endArrow=none;dashed=1;html=1;rounded=0;spacing=5;strokeWidth=3;" parent="1" edge="1">
          <mxGeometry width="50" height="50" relative="1" as="geometry">
            <mxPoint x="45" y="210" as="sourcePoint" />
            <mxPoint x="800" y="210" as="targetPoint" />
          </mxGeometry>
        </mxCell>
        <mxCell id="mgbPzSR5ZNTpy0_arQ9--3" value="" style="endArrow=none;dashed=1;html=1;rounded=0;spacing=5;strokeWidth=3;" parent="1" edge="1">
          <mxGeometry width="50" height="50" relative="1" as="geometry">
            <mxPoint x="42.5" y="80" as="sourcePoint" />
            <mxPoint x="800" y="80" as="targetPoint" />
          </mxGeometry>
        </mxCell>
        <mxCell id="mgbPzSR5ZNTpy0_arQ9--5" value="" style="endArrow=none;dashed=1;html=1;rounded=0;spacing=5;strokeWidth=3;" parent="1" edge="1">
          <mxGeometry width="50" height="50" relative="1" as="geometry">
            <mxPoint x="45" y="830" as="sourcePoint" />
            <mxPoint x="840" y="830" as="targetPoint" />
          </mxGeometry>
        </mxCell>
        <mxCell id="mgbPzSR5ZNTpy0_arQ9--6" value="&lt;b&gt;&lt;font style=&quot;font-size: 13px;&quot;&gt;Aplicação&lt;/font&gt;&lt;/b&gt;" style="text;html=1;strokeColor=none;fillColor=none;align=left;verticalAlign=middle;whiteSpace=wrap;rounded=0;" parent="1" vertex="1">
          <mxGeometry x="45" y="140" width="90" height="30" as="geometry" />
        </mxCell>
        <mxCell id="mgbPzSR5ZNTpy0_arQ9--7" value="&lt;b&gt;&lt;font style=&quot;font-size: 13px;&quot;&gt;Domínio&lt;/font&gt;&lt;/b&gt;" style="text;html=1;strokeColor=none;fillColor=none;align=left;verticalAlign=middle;whiteSpace=wrap;rounded=0;" parent="1" vertex="1">
          <mxGeometry x="45" y="295" width="90" height="30" as="geometry" />
        </mxCell>
        <mxCell id="mgbPzSR5ZNTpy0_arQ9--8" value="&lt;span style=&quot;font-size: 13px;&quot;&gt;&lt;b&gt;Infraestrutura&lt;/b&gt;&lt;/span&gt;" style="text;html=1;strokeColor=none;fillColor=none;align=left;verticalAlign=middle;whiteSpace=wrap;rounded=0;" parent="1" vertex="1">
          <mxGeometry x="42.5" y="850" width="100" height="30" as="geometry" />
        </mxCell>
        <mxCell id="mgbPzSR5ZNTpy0_arQ9--9" value="&lt;b&gt;&lt;font style=&quot;font-size: 13px;&quot;&gt;Interface do Usuário&lt;/font&gt;&lt;/b&gt;" style="text;html=1;strokeColor=none;fillColor=none;align=left;verticalAlign=middle;whiteSpace=wrap;rounded=0;" parent="1" vertex="1">
          <mxGeometry x="42.5" y="40" width="131" height="30" as="geometry" />
        </mxCell>
        <mxCell id="vFnGD5-m_LnVGo-z7X76-2" value="" style="shape=folder;fontStyle=1;spacingTop=10;tabWidth=40;tabHeight=14;tabPosition=left;html=1;whiteSpace=wrap;align=center;movable=1;resizable=1;rotatable=1;deletable=1;editable=1;locked=0;connectable=1;" parent="1" vertex="1">
          <mxGeometry x="540" y="590" width="297" height="100" as="geometry" />
        </mxCell>
        <mxCell id="vFnGD5-m_LnVGo-z7X76-3" value="&lt;p style=&quot;margin: 4px 0px 0px;&quot;&gt;&lt;b style=&quot;border-color: var(--border-color); background-color: initial;&quot;&gt;Veiculo&lt;/b&gt;&lt;br&gt;&lt;/p&gt;" style="verticalAlign=top;align=center;overflow=fill;fontSize=12;fontFamily=Helvetica;html=1;whiteSpace=wrap;movable=1;resizable=1;rotatable=1;deletable=1;editable=1;locked=0;connectable=1;" parent="1" vertex="1">
          <mxGeometry x="555" y="630" width="140" height="48" as="geometry" />
        </mxCell>
        <mxCell id="vFnGD5-m_LnVGo-z7X76-4" value="br.com.locacar.api.planejamento_locatech.valueobject" style="text;html=1;strokeColor=none;fillColor=none;align=left;verticalAlign=middle;whiteSpace=wrap;rounded=0;" parent="1" vertex="1">
          <mxGeometry x="543" y="600" width="308" height="30" as="geometry" />
        </mxCell>
        <mxCell id="vFnGD5-m_LnVGo-z7X76-6" value="&lt;p style=&quot;margin: 4px 0px 0px;&quot;&gt;&lt;b style=&quot;background-color: initial;&quot;&gt;Inspetor&lt;/b&gt;&lt;br&gt;&lt;/p&gt;" style="verticalAlign=top;align=center;overflow=fill;fontSize=12;fontFamily=Helvetica;html=1;whiteSpace=wrap;movable=1;resizable=1;rotatable=1;deletable=1;editable=1;locked=0;connectable=1;" parent="1" vertex="1">
          <mxGeometry x="340" y="748.5" width="140" height="45" as="geometry" />
        </mxCell>
        <mxCell id="Iqr8bu__uB9ba0dKuPjZ-1" value="&lt;p style=&quot;margin: 4px 0px 0px;&quot;&gt;&lt;b style=&quot;background-color: initial;&quot;&gt;Agendamento&lt;/b&gt;&lt;br&gt;&lt;/p&gt;" style="verticalAlign=top;align=center;overflow=fill;fontSize=12;fontFamily=Helvetica;html=1;whiteSpace=wrap;movable=1;resizable=1;rotatable=1;deletable=1;editable=1;locked=0;connectable=1;" parent="1" vertex="1">
          <mxGeometry x="495" y="748.5" width="140" height="45" as="geometry" />
        </mxCell>
        <mxCell id="uIFPP-oWCCxWKXSgPSHi-1" value="&lt;p style=&quot;margin: 4px 0px 0px;&quot;&gt;&lt;b style=&quot;background-color: initial;&quot;&gt;ReservaDTO&lt;/b&gt;&lt;br&gt;&lt;/p&gt;" style="verticalAlign=top;align=center;overflow=fill;fontSize=12;fontFamily=Helvetica;html=1;whiteSpace=wrap;movable=1;resizable=1;rotatable=1;deletable=1;editable=1;locked=0;connectable=1;" vertex="1" parent="1">
          <mxGeometry x="373.25" y="629" width="140" height="45" as="geometry" />
        </mxCell>
      </root>
    </mxGraphModel>
  </diagram>
</mxfile>
